<?xml version="1.0" encoding="utf-8"?>
<!-- Generator: Adobe Illustrator 23.1.1, SVG Export Plug-In . SVG Version: 6.00 Build 0)  -->
<svg version="1.1" id="Layer_1" xmlns="http://www.w3.org/2000/svg" xmlns:xlink="http://www.w3.org/1999/xlink" x="0px" y="0px"
	 viewBox="0 0 869 859" style="enable-background:new 0 0 869 859;" xml:space="preserve">
<style type="text/css">
	.st0{fill:#164C57;}
	.st1{font-family:'Poppins-Bold';}
	.st2{font-size:65px;}
	.st3{fill:#A5CDBD;}
	.st4{font-size:53px;}
	.st5{font-size:47px;}
	.st6{font-size:40px;}
	.st7{font-size:12px;}
	.st8{fill:#45A482;}
	.st9{fill:#1B757C;}
	.st10{fill:#98C46C;}
	.st11{font-size:39.8936px;}
</style>
<g>
	<g id="wordcloud">
		<g>
			<g transform="translate(434.5, 429.5)">
				<text transform="matrix(1 0 0 1 -144.3318 43)" class="st0 st1 st2">toilet paper</text>
				<text transform="matrix(1 0 0 1 -36.1985 155)" class="st3 st1 st4">stall</text>
				<text transform="matrix(1 0 0 1 91.568 -59)" class="st3 st1 st5">sink</text>
				<text transform="matrix(1 0 0 1 68.8359 -141)" class="st3 st1 st6">floor</text>
				<text transform="matrix(1 0 0 1 -178.2943 -74)" class="st3 st1 st7">circle of gr9s</text>
				<text transform="matrix(1 0 0 1 -48.0059 -21)" class="st8 st1 st7">social gathering place</text>
				<text transform="matrix(1 0 0 1 -272.7301 -44)" class="st8 st1 st7">trail of blood</text>
				<text transform="matrix(1 0 0 1 35.1599 -110)" class="st3 st1 st7">red orange colour</text>
				<text transform="matrix(1 0 0 1 96.0238 119)" class="st3 st1 st7">lack of place</text>
				<text transform="matrix(1 0 0 1 -70.6622 63)" class="st9 st1 st7">lack of toilet</text>
				<text transform="matrix(1 0 0 1 -299.0244 96)" class="st3 st1 st7">long line ups</text>
				<text transform="matrix(1 0 0 1 127.4518 178)" class="st9 st1 st7">lot of water</text>
				<text transform="matrix(1 0 0 1 -24.3903 -44)" class="st9 st1 st7">little cult circle</text>
				<text transform="matrix(1 0 0 1 -78.0084 176)" class="st0 st1 st7">taller stall</text>
				<text transform="matrix(1 0 0 1 -71.3283 -72)" class="st0 st1 st7">skipping class</text>
				<text transform="matrix(1 0 0 1 32.2877 -87)" class="st8 st1 st7">better tp</text>
				<text transform="matrix(1 0 0 1 -300.1784 -189)" class="st10 st1 st7">lower willingness</text>
				<text transform="matrix(1 0 0 1 -269.7623 -20)" class="st0 st1 st7">random girls</text>
				<text transform="matrix(1 0 0 1 122.4936 -21)" class="st9 st1 st7">seen students</text>
				<text transform="matrix(1 0 0 1 -234.9903 73)" class="st8 st1 st7">enough water</text>
				<text transform="matrix(1 0 0 1 -102.5045 122)" class="st10 st1 st7">stall wall</text>
				<text transform="matrix(1 0 0 1 94.7058 147)" class="st10 st1 st7">weird substance</text>
				<text transform="matrix(1 0 0 1 -212.4622 -166)" class="st0 st1 st7">occasional lack</text>
				<text transform="matrix(1 0 0 1 -227.1445 -93)" class="st9 st1 st7">drug use</text>
				<text transform="matrix(1 0 0 1 -137.8722 -29)" class="st9 st1 st7">bloody pad</text>
				<text transform="matrix(1 0 0 1 81.0497 -200)" class="st9 st1 st7">grade 10</text>
				<text transform="matrix(1 0 0 1 -175.9804 -113)" class="st10 st1 st7">stall door</text>
			</g>
		</g>
	</g>
</g>
<text transform="matrix(1 0 0 1 50.92 114.7482)"><tspan x="0" y="0" class="st1 st11">Suggestions/Complaints </tspan><tspan x="0" y="47.9" class="st1 st11">from Females</tspan></text>
</svg>
