<?xml version="1.0" encoding="utf-8"?>
<!-- Generator: Adobe Illustrator 23.1.1, SVG Export Plug-In . SVG Version: 6.00 Build 0)  -->
<svg version="1.1" id="Layer_1" xmlns="http://www.w3.org/2000/svg" xmlns:xlink="http://www.w3.org/1999/xlink" x="0px" y="0px"
	 viewBox="0 0 869 859" style="enable-background:new 0 0 869 859;" xml:space="preserve">
<style type="text/css">
	.st0{fill:#00D0FF;}
	.st1{font-family:'Poppins-Bold';}
	.st2{font-size:65px;}
	.st3{fill:#00A5FF;}
	.st4{font-size:55px;}
	.st5{font-size:49px;}
	.st6{fill:#006ECE;}
	.st7{fill:#98CFFF;}
	.st8{font-size:41px;}
	.st9{fill:#2A3E52;}
	.st10{font-size:30px;}
	.st11{font-size:12px;}
	.st12{font-size:39.8936px;}
</style>
<g>
	<g id="wordcloud">
		<g>
			<g transform="translate(434.5, 429.5)">
				<text transform="matrix(1 0 0 1 -217.6318 70)" class="st0 st1 st2">toilet</text>
				<text transform="matrix(1 0 0 1 21.9038 105)" class="st3 st1 st4">door</text>
				<text transform="matrix(1 0 0 1 -33.0239 -35)" class="st3 st1 st5">sink</text>
				<text transform="matrix(1 0 0 1 67.8174 10)" class="st6 st1 st5">soap</text>
				<text transform="matrix(1 0 0 1 -210.4878 190)" class="st7 st1 st8">toilet paper</text>
				<text transform="matrix(1 0 0 1 -60.3252 -95)" class="st9 st1 st10">floor</text>
				<text transform="matrix(1 0 0 1 -146.3398 240)" class="st9 st1 st10">people</text>
				<text transform="matrix(1 0 0 1 18.1431 -153)" class="st3 st1 st10">everything</text>
				<text transform="matrix(1 0 0 1 26.3008 -190)" class="st3 st1 st10">issues</text>
				<text transform="matrix(1 0 0 1 -61.3389 10)" class="st3 st1 st11">little toilet paper</text>
				<text transform="matrix(1 0 0 1 66.3213 125)" class="st6 st1 st11">lack of soap</text>
				<text transform="matrix(1 0 0 1 30.6494 -92)" class="st7 st1 st11">soap issues</text>
				<text transform="matrix(1 0 0 1 161.3232 -194)" class="st7 st1 st11">broken lock</text>
				<text transform="matrix(1 0 0 1 63.6709 30)" class="st0 st1 st11">door knob</text>
				<text transform="matrix(1 0 0 1 82.6387 186)" class="st7 st1 st11">terrible experience</text>
				<text transform="matrix(1 0 0 1 -212.0156 -165)" class="st3 st1 st11">soap dispenser</text>
				<text transform="matrix(1 0 0 1 43.6562 209)" class="st0 st1 st11">smoking weed</text>
				<text transform="matrix(1 0 0 1 4.9971 232)" class="st3 st1 st11">stall door</text>
				<text transform="matrix(1 0 0 1 -188.0146 -192)" class="st6 st1 st11">air dryer</text>
				<text transform="matrix(1 0 0 1 -85.6807 -136)" class="st3 st1 st11">wild teenagers</text>
				<text transform="matrix(1 0 0 1 -132.3291 93)" class="st0 st1 st11">toilet door</text>
				<text transform="matrix(1 0 0 1 -52.0117 94)" class="st0 st1 st11">facilities</text>
				<text transform="matrix(1 0 0 1 -96.3389 -164)" class="st6 st1 st11">grade</text>
				<text transform="matrix(1 0 0 1 -184.6689 -80)" class="st9 st1 st11">urine</text>
				<text transform="matrix(1 0 0 1 -117.3428 -108)" class="st0 st1 st11">library</text>
				<text transform="matrix(1 0 0 1 25.0029 -16)" class="st9 st1 st11">ppl</text>
				<text transform="matrix(1 0 0 1 -94.3359 -76)" class="st0 st1 st11">handle</text>
				<text transform="matrix(1 0 0 1 -66.9951 -188)" class="st7 st1 st11">hotbox</text>
				<text transform="matrix(1 0 0 1 -246.6807 91)" class="st3 st1 st11">inconvenience</text>
				<text transform="matrix(1 0 0 1 -2.6738 136)" class="st7 st1 st11">water</text>
				<text transform="matrix(1 0 0 1 144.9893 167)" class="st7 st1 st11">sex</text>
				<text transform="matrix(1 0 0 1 -145 113)" class="st3 st1 st11">room</text>
				<text transform="matrix(1 0 0 1 -234.3359 -34)" class="st7 st1 st11">sanitation</text>
				<text transform="matrix(1 0 0 1 -233.3369 209)" class="st6 st1 st11">time</text>
				<text transform="matrix(1 0 0 1 -33.6758 -164)" class="st0 st1 st11">male</text>
			</g>
		</g>
	</g>
</g>
<text transform="matrix(1 0 0 1 44.3401 109.8801)"><tspan x="0" y="0" class="st1 st12">Suggestions/Complaints </tspan><tspan x="0" y="47.9" class="st1 st12">from Males</tspan></text>
</svg>
